{
	"bufferViews":[{
		"buffer":0,
		"byteOffset":0,
		"byteLength":1344,
		"target":34963
	},
	{
		"buffer":0,
		"byteOffset":1344,
		"byteLength":4832,
		"target":34962,
		"byteStride":32
	},
	{
		"buffer":1,
		"byteOffset":0,
		"byteLength":48
	},
	{
		"buffer":1,
		"byteOffset":48,
		"byteLength":60
	},
	{
		"buffer":2,
		"byteOffset":0,
		"byteLength":2112,
		"target":34963
	},
	{
		"buffer":2,
		"byteOffset":2112,
		"byteLength":7008,
		"target":34962,
		"byteStride":32
	},
	{
		"buffer":3,
		"byteOffset":0,
		"byteLength":960,
		"target":34963
	},
	{
		"buffer":3,
		"byteOffset":960,
		"byteLength":3808,
		"target":34962,
		"byteStride":32
	},
	{
		"buffer":4,
		"byteOffset":0,
		"byteLength":48
	},
	{
		"buffer":4,
		"byteOffset":48,
		"byteLength":60
	},
	{
		"buffer":5,
		"byteOffset":0,
		"byteLength":2112,
		"target":34963
	},
	{
		"buffer":5,
		"byteOffset":2112,
		"byteLength":7008,
		"target":34962,
		"byteStride":32
	},
	{
		"buffer":6,
		"byteOffset":0,
		"byteLength":960,
		"target":34963
	},
	{
		"buffer":6,
		"byteOffset":960,
		"byteLength":3808,
		"target":34962,
		"byteStride":32
	},
	{
		"buffer":7,
		"byteOffset":0,
		"byteLength":1224,
		"target":34963
	},
	{
		"buffer":7,
		"byteOffset":1224,
		"byteLength":5312,
		"target":34962,
		"byteStride":32
	},
	{
		"buffer":8,
		"byteOffset":0,
		"byteLength":80
	}],
	"asset":{
		"version":"2.0",
		"generator":"Created using the official Cinema 4D glTF Exporter 1.000x284978"
	},
	"animations":[{
		"samplers":[{
			"input":4,
			"interpolation":"LINEAR",
			"output":5
		},
		{
			"input":6,
			"interpolation":"LINEAR",
			"output":7
		},
		{
			"input":16,
			"interpolation":"LINEAR",
			"output":17
		},
		{
			"input":18,
			"interpolation":"LINEAR",
			"output":19
		},
		{
			"input":32,
			"interpolation":"LINEAR",
			"output":33
		}],
		"channels":[{
			"sampler":0,
			"target":{
				"node":1,
				"path":"translation"
			}
		},
		{
			"sampler":1,
			"target":{
				"node":1,
				"path":"rotation"
			}
		},
		{
			"sampler":2,
			"target":{
				"node":4,
				"path":"translation"
			}
		},
		{
			"sampler":3,
			"target":{
				"node":4,
				"path":"rotation"
			}
		},
		{
			"sampler":4,
			"target":{
				"node":7,
				"path":"translation"
			}
		}]
	}],
	"scenes":[{
		"nodes":[0,
		1,
		4,
		7]
	}],
	"buffers":[{
		"uri":"data:application/octet-stream;base64,",
		"byteLength":6176
	},
	{
		"uri":"data:application/octet-stream;base64,",
		"byteLength":108
	},
	{
		"uri":"data:application/octet-stream;base64,",
		"byteLength":9120
	},
	{
		"uri":"data:application/octet-stream;base64,",
		"byteLength":4768
	},
	{
		"uri":"data:application/octet-stream;base64,",
		"byteLength":108
	},
	{
		"uri":"data:application/octet-stream;base64,",
		"byteLength":9120
	},
	{
		"uri":"data:application/octet-stream;base64,",
		"byteLength":4768
	},
	{
		"uri":"data:application/octet-stream;base64,",
		"byteLength":6536
	},
	{
		"uri":"data:application/octet-stream;base64,",
		"byteLength":80
	}],
	"nodes":[{
		"name":"Sphere",
		"translation":[-5.669988632202148,
		199.75750732421876,
		-9.445429801940918],
		"rotation":[0.0,
		-0.7071067690849304,
		0.0,
		0.7071067690849304],
		"scale":[1.0,
		1.0,
		1.0],
		"mesh":0
	},
	{
		"name":"L leg",
		"translation":[-45.03995895385742,
		79.59272003173828,
		53.804969787597659],
		"rotation":[0.24359984695911408,
		0.04128250852227211,
		0.0025362931191921236,
		-0.9689935445785523],
		"scale":[1.0,
		1.0,
		1.0],
		"children":[2,
		3]
	},
	{
		"name":"foot",
		"translation":[-0.12766093015670777,
		-51.13560485839844,
		-4.15058708190918],
		"rotation":[0.0,
		0.0,
		0.0,
		-1.0],
		"scale":[1.0,
		1.0,
		1.0],
		"mesh":1
	},
	{
		"name":"leg",
		"translation":[0.12766093015670777,
		51.13560485839844,
		4.15058708190918],
		"rotation":[0.0,
		0.0,
		0.0,
		-1.0],
		"scale":[1.0,
		1.0,
		1.0],
		"mesh":2
	},
	{
		"name":"R leg",
		"translation":[45.97084426879883,
		83.90325164794922,
		-71.84481811523438],
		"rotation":[-0.2535998523235321,
		0.0,
		0.0,
		-0.9673092365264893],
		"scale":[1.0,
		1.0,
		1.0],
		"children":[5,
		6]
	},
	{
		"name":"foot",
		"translation":[-0.02351044863462448,
		-51.13560485839844,
		-4.15058708190918],
		"rotation":[0.0,
		0.0,
		0.0,
		-1.0],
		"scale":[1.0,
		1.0,
		1.0],
		"mesh":3
	},
	{
		"name":"leg",
		"translation":[0.02351044863462448,
		51.13560485839844,
		4.15058708190918],
		"rotation":[0.0,
		0.0,
		0.0,
		-1.0],
		"scale":[1.0,
		1.0,
		1.0],
		"mesh":4
	},
	{
		"name":"body",
		"translation":[-5.669988632202148,
		215.27169799804688,
		-9.445429801940918],
		"rotation":[0.0,
		-0.7071067690849304,
		0.0,
		0.7071067690849304],
		"scale":[1.0,
		1.0,
		1.0],
		"mesh":5
	}],
	"accessors":[{
		"bufferView":0,
		"type":"SCALAR",
		"componentType":5123,
		"count":672,
		"byteOffset":0,
		"min":[0],
		"max":[150]
	},
	{
		"bufferView":1,
		"type":"VEC3",
		"componentType":5126,
		"count":151,
		"byteOffset":0,
		"min":[-16.954557418823243,
		-16.954557418823243,
		-16.954557418823243],
		"max":[16.954557418823243,
		16.954557418823243,
		16.954557418823243]
	},
	{
		"bufferView":1,
		"type":"VEC3",
		"componentType":5126,
		"count":151,
		"byteOffset":12,
		"min":[-0.9999999403953552,
		-1.0,
		-0.9999999403953552],
		"max":[0.9999999403953552,
		1.0,
		0.9999999403953552]
	},
	{
		"bufferView":1,
		"type":"VEC2",
		"componentType":5126,
		"count":151,
		"byteOffset":24,
		"min":[0.0,
		0.0],
		"max":[1.0,
		1.0]
	},
	{
		"bufferView":2,
		"type":"SCALAR",
		"componentType":5126,
		"count":3,
		"byteOffset":0,
		"min":[0.0],
		"max":[0.6666666865348816]
	},
	{
		"bufferView":2,
		"type":"VEC3",
		"componentType":5126,
		"count":3,
		"byteOffset":12,
		"min":[0.0,
		76.09769439697266,
		-85.17218780517578],
		"max":[0.0,
		80.0,
		70.0]
	},
	{
		"bufferView":3,
		"type":"SCALAR",
		"componentType":5126,
		"count":3,
		"byteOffset":0,
		"min":[0.0],
		"max":[0.6666666865348816]
	},
	{
		"bufferView":3,
		"type":"VEC4",
		"componentType":5126,
		"count":3,
		"byteOffset":12,
		"min":[-0.26141831278800967,
		0.0,
		0.0,
		-0.9652255773544312],
		"max":[0.30070579051971438,
		0.0,
		0.0,
		-0.9537169337272644]
	},
	{
		"bufferView":4,
		"type":"SCALAR",
		"componentType":5123,
		"count":1056,
		"byteOffset":0,
		"min":[0],
		"max":[218]
	},
	{
		"bufferView":5,
		"type":"VEC3",
		"componentType":5126,
		"count":219,
		"byteOffset":0,
		"min":[-18.242998123168947,
		-18.242998123168947,
		-36.48599624633789],
		"max":[18.242998123168947,
		18.242998123168947,
		36.48599624633789]
	},
	{
		"bufferView":5,
		"type":"VEC3",
		"componentType":5126,
		"count":219,
		"byteOffset":12,
		"min":[-1.0,
		-1.0,
		-1.0],
		"max":[1.0,
		1.0,
		1.0]
	},
	{
		"bufferView":5,
		"type":"VEC2",
		"componentType":5126,
		"count":219,
		"byteOffset":24,
		"min":[0.0,
		0.0],
		"max":[1.0,
		1.0]
	},
	{
		"bufferView":6,
		"type":"SCALAR",
		"componentType":5123,
		"count":480,
		"byteOffset":0,
		"min":[0],
		"max":[118]
	},
	{
		"bufferView":7,
		"type":"VEC3",
		"componentType":5126,
		"count":119,
		"byteOffset":0,
		"min":[-18.025819778442384,
		-102.6348876953125,
		-18.025819778442384],
		"max":[18.025819778442384,
		102.6348876953125,
		18.025819778442384]
	},
	{
		"bufferView":7,
		"type":"VEC3",
		"componentType":5126,
		"count":119,
		"byteOffset":12,
		"min":[-1.0,
		-1.0,
		-1.0],
		"max":[1.0,
		1.0,
		1.0]
	},
	{
		"bufferView":7,
		"type":"VEC2",
		"componentType":5126,
		"count":119,
		"byteOffset":24,
		"min":[0.0,
		0.0],
		"max":[1.0,
		1.0]
	},
	{
		"bufferView":8,
		"type":"SCALAR",
		"componentType":5126,
		"count":3,
		"byteOffset":0,
		"min":[0.0],
		"max":[0.6666666865348816]
	},
	{
		"bufferView":8,
		"type":"VEC3",
		"componentType":5126,
		"count":3,
		"byteOffset":12,
		"min":[45.97084426879883,
		74.3938217163086,
		-89.51400756835938],
		"max":[45.97084426879883,
		85.01138305664063,
		79.78276062011719]
	},
	{
		"bufferView":9,
		"type":"SCALAR",
		"componentType":5126,
		"count":3,
		"byteOffset":0,
		"min":[0.0],
		"max":[0.6666666865348816]
	},
	{
		"bufferView":9,
		"type":"VEC4",
		"componentType":5126,
		"count":3,
		"byteOffset":12,
		"min":[-0.3155624270439148,
		0.0,
		0.0,
		-0.9558121562004089],
		"max":[0.29397815465927126,
		0.0,
		0.0,
		-0.948904812335968]
	},
	{
		"bufferView":10,
		"type":"SCALAR",
		"componentType":5123,
		"count":1056,
		"byteOffset":0,
		"min":[0],
		"max":[218]
	},
	{
		"bufferView":11,
		"type":"VEC3",
		"componentType":5126,
		"count":219,
		"byteOffset":0,
		"min":[-18.242998123168947,
		-18.242998123168947,
		-36.48599624633789],
		"max":[18.242998123168947,
		18.242998123168947,
		36.48599624633789]
	},
	{
		"bufferView":11,
		"type":"VEC3",
		"componentType":5126,
		"count":219,
		"byteOffset":12,
		"min":[-1.0,
		-1.0,
		-1.0],
		"max":[1.0,
		1.0,
		1.0]
	},
	{
		"bufferView":11,
		"type":"VEC2",
		"componentType":5126,
		"count":219,
		"byteOffset":24,
		"min":[0.0,
		0.0],
		"max":[1.0,
		1.0]
	},
	{
		"bufferView":12,
		"type":"SCALAR",
		"componentType":5123,
		"count":480,
		"byteOffset":0,
		"min":[0],
		"max":[118]
	},
	{
		"bufferView":13,
		"type":"VEC3",
		"componentType":5126,
		"count":119,
		"byteOffset":0,
		"min":[-16.86181640625,
		-101.53923797607422,
		-16.86181640625],
		"max":[16.86181640625,
		101.53923797607422,
		16.86181640625]
	},
	{
		"bufferView":13,
		"type":"VEC3",
		"componentType":5126,
		"count":119,
		"byteOffset":12,
		"min":[-1.0,
		-1.0,
		-1.0],
		"max":[1.0,
		1.0,
		1.0]
	},
	{
		"bufferView":13,
		"type":"VEC2",
		"componentType":5126,
		"count":119,
		"byteOffset":24,
		"min":[0.0,
		0.0],
		"max":[1.0,
		1.0]
	},
	{
		"bufferView":14,
		"type":"SCALAR",
		"componentType":5123,
		"count":612,
		"byteOffset":0,
		"min":[0],
		"max":[165]
	},
	{
		"bufferView":15,
		"type":"VEC3",
		"componentType":5126,
		"count":166,
		"byteOffset":0,
		"min":[-100.0,
		-100.0,
		-100.0],
		"max":[100.0,
		100.0,
		100.0]
	},
	{
		"bufferView":15,
		"type":"VEC3",
		"componentType":5126,
		"count":166,
		"byteOffset":12,
		"min":[-0.9832738637924194,
		-0.9865115880966187,
		-0.983273983001709],
		"max":[0.9832738637924194,
		0.9865115880966187,
		0.983273983001709]
	},
	{
		"bufferView":15,
		"type":"VEC2",
		"componentType":5126,
		"count":166,
		"byteOffset":24,
		"min":[0.0,
		0.0],
		"max":[1.0,
		1.0]
	},
	{
		"bufferView":16,
		"type":"SCALAR",
		"componentType":5126,
		"count":5,
		"byteOffset":0,
		"min":[0.0],
		"max":[0.6666666865348816]
	},
	{
		"bufferView":16,
		"type":"VEC3",
		"componentType":5126,
		"count":5,
		"byteOffset":20,
		"min":[0.0,
		210.0,
		0.0],
		"max":[0.0,
		225.0,
		0.0]
	}],
	"meshes":[{
		"name":"Sphere",
		"primitives":[{
			"attributes":{
				"POSITION":1,
				"NORMAL":2,
				"TEXCOORD_0":3
			},
			"indices":0
		}]
	},
	{
		"name":"foot",
		"primitives":[{
			"attributes":{
				"POSITION":9,
				"NORMAL":10,
				"TEXCOORD_0":11
			},
			"indices":8,
			"material":0
		}]
	},
	{
		"name":"leg",
		"primitives":[{
			"attributes":{
				"POSITION":13,
				"NORMAL":14,
				"TEXCOORD_0":15
			},
			"indices":12,
			"material":1
		}]
	},
	{
		"name":"foot",
		"primitives":[{
			"attributes":{
				"POSITION":21,
				"NORMAL":22,
				"TEXCOORD_0":23
			},
			"indices":20,
			"material":0
		}]
	},
	{
		"name":"leg",
		"primitives":[{
			"attributes":{
				"POSITION":25,
				"NORMAL":26,
				"TEXCOORD_0":27
			},
			"indices":24,
			"material":1
		}]
	},
	{
		"name":"body",
		"primitives":[{
			"attributes":{
				"POSITION":29,
				"NORMAL":30,
				"TEXCOORD_0":31
			},
			"indices":28,
			"material":2
		}]
	}],
	"materials":[{
		"pbrMetallicRoughness":{
			"baseColorFactor":[0.23999999999999997,
			0.8,
			0.23999999999999997,
			1.0],
			"metallicFactor":0.0,
			"roughnessFactor":0.5
		},
		"emissiveFactor":[0.0,
		0.0,
		0.0],
		"alphaMode":"OPAQUE",
		"doubleSided":false,
		"name":"Mat"
	},
	{
		"pbrMetallicRoughness":{
			"baseColorFactor":[0.23999999999999997,
			0.8,
			0.744,
			1.0],
			"metallicFactor":0.0,
			"roughnessFactor":0.5
		},
		"emissiveFactor":[0.0,
		0.0,
		0.0],
		"alphaMode":"OPAQUE",
		"doubleSided":false,
		"name":"Mat.2"
	},
	{
		"pbrMetallicRoughness":{
			"baseColorFactor":[0.8120000000000008,
			0.84,
			0.0,
			1.0],
			"metallicFactor":0.0,
			"roughnessFactor":0.5
		},
		"emissiveFactor":[0.0,
		0.0,
		0.0],
		"alphaMode":"OPAQUE",
		"doubleSided":false,
		"name":"Mat.1"
	}]
}