{
	"asset":{
		"version":"2.0",
		"generator":"Created using the official Cinema 4D glTF Exporter 1.000x284978"
	},
	"scenes":[{
		"nodes":[0,
		1]
	}],
	"nodes":[{
		"name":"Disc",
		"translation":[73.4728012084961,
		205.1865997314453,
		-1.9184776544570923],
		"rotation":[0.0,
		0.0,
		0.0,
		-1.0],
		"scale":[1.0,
		1.0,
		1.0],
		"mesh":0
	},
	{
		"name":"Cube",
		"translation":[0.0,
		102.4333267211914,
		0.0],
		"rotation":[0.0,
		0.0,
		0.0,
		-1.0],
		"scale":[1.0,
		1.0,
		1.0],
		"mesh":1
	}],
	"accessors":[{
		"min":[0],
		"bufferView":0,
		"type":"SCALAR",
		"componentType":5123,
		"count":48,
		"byteOffset":0,
		"max":[16]
	},
	{
		"min":[-342.396484375,
		0.0,
		-342.396484375],
		"bufferView":1,
		"type":"VEC3",
		"componentType":5126,
		"count":17,
		"byteOffset":0,
		"max":[342.396484375,
		0.0,
		342.396484375]
	},
	{
		"min":[0.0,
		1.0,
		0.0],
		"bufferView":1,
		"type":"VEC3",
		"componentType":5126,
		"count":17,
		"byteOffset":12,
		"max":[0.0,
		1.0,
		0.0]
	},
	{
		"min":[0.0,
		0.0],
		"bufferView":1,
		"type":"VEC2",
		"componentType":5126,
		"count":17,
		"byteOffset":24,
		"max":[1.0,
		1.0]
	},
	{
		"min":[0.0],
		"bufferView":2,
		"type":"SCALAR",
		"componentType":5126,
		"count":3,
		"byteOffset":0,
		"max":[0.6666666865348816]
	},
	{
		"min":[-0.2726442813873291,
		0.0,
		0.0],
		"bufferView":2,
		"type":"VEC3",
		"componentType":5126,
		"count":3,
		"byteOffset":12,
		"max":[219.15818786621095,
		0.0,
		0.0]
	},
	{
		"min":[0],
		"bufferView":3,
		"type":"SCALAR",
		"componentType":5123,
		"count":36,
		"byteOffset":0,
		"max":[23]
	},
	{
		"min":[-100.0,
		-100.0,
		-100.0],
		"bufferView":4,
		"type":"VEC3",
		"componentType":5126,
		"count":24,
		"byteOffset":0,
		"max":[100.0,
		100.0,
		100.0]
	},
	{
		"min":[-1.0,
		-1.0,
		-1.0],
		"bufferView":4,
		"type":"VEC3",
		"componentType":5126,
		"count":24,
		"byteOffset":12,
		"max":[1.0,
		1.0,
		1.0]
	},
	{
		"min":[0.0,
		0.0],
		"bufferView":4,
		"type":"VEC2",
		"componentType":5126,
		"count":24,
		"byteOffset":24,
		"max":[1.0,
		1.0]
	}],
	"meshes":[{
		"name":"Disc",
		"primitives":[{
			"attributes":{
				"POSITION":1,
				"NORMAL":2,
				"TEXCOORD_0":3
			},
			"indices":0,
			"material":0
		}]
	},
	{
		"name":"Cube",
		"primitives":[{
			"attributes":{
				"POSITION":7,
				"NORMAL":8,
				"TEXCOORD_0":9
			},
			"indices":6
		}]
	}],
	"bufferViews":[{
		"buffer":0,
		"byteOffset":0,
		"byteLength":96,
		"target":34963
	},
	{
		"buffer":0,
		"byteOffset":96,
		"byteLength":544,
		"target":34962,
		"byteStride":32
	},
	{
		"buffer":1,
		"byteOffset":0,
		"byteLength":48
	},
	{
		"buffer":2,
		"byteOffset":0,
		"byteLength":72,
		"target":34963
	},
	{
		"buffer":2,
		"byteOffset":72,
		"byteLength":768,
		"target":34962,
		"byteStride":32
	}],
	"buffers":[{
		"uri":"data:application/octet-stream;base64,",
		"byteLength":640
	},
	{
		"uri":"data:application/octet-stream;base64,",
		"byteLength":48
	},
	{
		"uri":"data:application/octet-stream;base64,",
		"byteLength":840
	}],
	"materials":[{
		"pbrMetallicRoughness":{
			"baseColorFactor":[0.7200000000000001,
			0.05039999999999997,
			0.05039999999999997,
			1.0],
			"metallicFactor":0.0,
			"roughnessFactor":0.45
		},
		"emissiveFactor":[0.0,
		0.0,
		0.0],
		"alphaMode":"OPAQUE",
		"doubleSided":false,
		"name":"Mat"
	}],
	"animations":[{
		"samplers":[{
			"output":5,
			"input":4,
			"interpolation":"LINEAR"
		}],
		"channels":[{
			"sampler":0,
			"target":{
				"node":0,
				"path":"translation"
			}
		}]
	}]
}