{
    "asset" : {
        "generator" : "Khronos glTF Blender I/O v1.4.40",
        "version" : "2.0"
    },
    "scene" : 0,
    "scenes" : [
        {
            "name" : "Scene",
            "nodes" : [
                0,
                1,
                2
            ]
        }
    ],
    "nodes" : [
        {
            "mesh" : 0,
            "name" : "Cube",
            "rotation" : [
                0,
                0.10317140072584152,
                0,
                0.9946635961532593
            ],
            "scale" : [
                1,
                1.5671696662902832,
                1
            ],
            "translation" : [
                -0.012527242302894592,
                1.994780421257019,
                -1.2444493770599365
            ]
        },
        {
            "mesh" : 1,
            "name" : "Cube.001",
            "rotation" : [
                0.6938388347625732,
                -0.13633668422698975,
                0.13633668422698975,
                0.6938388347625732
            ],
            "scale" : [
                1,
                1.5671696662902832,
                1
            ],
            "translation" : [
                -0.012527242302894592,
                1.1838325262069702,
                1.8503416776657104
            ]
        },
        {
            "name" : "Sun",
            "rotation" : [
                0.019961554557085037,
                0.02580660954117775,
                0.3769359588623047,
                0.9256646633148193
            ],
            "scale" : [
                1.0312004089355469,
                1.0868642330169678,
                3.6658742427825928
            ],
            "translation" : [
                -6.48673677444458,
                4.73531436920166,
                -0.5456660389900208
            ]
        }
    ],
    "materials" : [
        {
            "doubleSided" : true,
            "name" : "Material.001",
            "pbrMetallicRoughness" : {
                "baseColorFactor" : [
                    0.248421311378479,
                    0.7658763527870178,
                    1,
                    1
                ],
                "metallicFactor" : 0,
                "roughnessFactor" : 0.5
            }
        }
    ],
    "meshes" : [
        {
            "name" : "Cube.001",
            "primitives" : [
                {
                    "attributes" : {
                        "POSITION" : 0,
                        "NORMAL" : 1,
                        "TEXCOORD_0" : 2,
                        "COLOR_0" : 3
                    },
                    "indices" : 4,
                    "material" : 0
                }
            ]
        },
        {
            "name" : "Cube.003",
            "primitives" : [
                {
                    "attributes" : {
                        "POSITION" : 5,
                        "NORMAL" : 6,
                        "TEXCOORD_0" : 7,
                        "COLOR_0" : 8
                    },
                    "indices" : 9,
                    "material" : 0
                }
            ]
        }
    ],
    "accessors" : [
        {
            "bufferView" : 0,
            "componentType" : 5126,
            "count" : 2626,
            "max" : [
                1,
                1,
                1
            ],
            "min" : [
                -1.186141848564148,
                -1,
                -1
            ],
            "type" : "VEC3"
        },
        {
            "bufferView" : 1,
            "componentType" : 5126,
            "count" : 2626,
            "type" : "VEC3"
        },
        {
            "bufferView" : 2,
            "componentType" : 5126,
            "count" : 2626,
            "type" : "VEC2"
        },
        {
            "bufferView" : 3,
            "componentType" : 5123,
            "count" : 2626,
            "normalized" : true,
            "type" : "VEC4"
        },
        {
            "bufferView" : 4,
            "componentType" : 5123,
            "count" : 4524,
            "type" : "SCALAR"
        },
        {
            "bufferView" : 5,
            "componentType" : 5126,
            "count" : 4434,
            "max" : [
                1,
                1,
                1
            ],
            "min" : [
                -1.1053563356399536,
                -1,
                -1
            ],
            "type" : "VEC3"
        },
        {
            "bufferView" : 6,
            "componentType" : 5126,
            "count" : 4434,
            "type" : "VEC3"
        },
        {
            "bufferView" : 7,
            "componentType" : 5126,
            "count" : 4434,
            "type" : "VEC2"
        },
        {
            "bufferView" : 8,
            "componentType" : 5123,
            "count" : 4434,
            "normalized" : true,
            "type" : "VEC4"
        },
        {
            "bufferView" : 9,
            "componentType" : 5123,
            "count" : 4524,
            "type" : "SCALAR"
        }
    ],
    "bufferViews" : [
        {
            "buffer" : 0,
            "byteLength" : 31512,
            "byteOffset" : 0
        },
        {
            "buffer" : 0,
            "byteLength" : 31512,
            "byteOffset" : 31512
        },
        {
            "buffer" : 0,
            "byteLength" : 21008,
            "byteOffset" : 63024
        },
        {
            "buffer" : 0,
            "byteLength" : 21008,
            "byteOffset" : 84032
        },
        {
            "buffer" : 0,
            "byteLength" : 9048,
            "byteOffset" : 105040
        },
        {
            "buffer" : 0,
            "byteLength" : 53208,
            "byteOffset" : 114088
        },
        {
            "buffer" : 0,
            "byteLength" : 53208,
            "byteOffset" : 167296
        },
        {
            "buffer" : 0,
            "byteLength" : 35472,
            "byteOffset" : 220504
        },
        {
            "buffer" : 0,
            "byteLength" : 35472,
            "byteOffset" : 255976
        },
        {
            "buffer" : 0,
            "byteLength" : 9048,
            "byteOffset" : 291448
        }
    ],
    "buffers" : [
        {
            "byteLength" : 300496,
            "uri" : "data:application/octet-stream;base64,"
        }
    ]
}
